<?xml version="1.0" standalone="no"?>
<!DOCTYPE svg PUBLIC "-//W3C//DTD SVG 20010904//EN"
 "http://www.w3.org/TR/2001/REC-SVG-20010904/DTD/svg10.dtd">
<svg version="1.0" xmlns="http://www.w3.org/2000/svg"
 width="128.000000pt" height="128.000000pt" viewBox="0 0 128.000000 128.000000"
 preserveAspectRatio="xMidYMid meet">
<metadata>
Created by potrace 1.14, written by Peter Selinger 2001-2017
</metadata>
<g transform="translate(0.000000,128.000000) scale(0.100000,-0.100000)"
fill="#000000" stroke="none">
<path d="M655 1256 c-6 -6 -10 -18 -10 -26 1 -8 -1 -19 -4 -24 -2 -6 -5 -28
-5 -50 -1 -38 -3 -40 -32 -42 -45 -2 -141 -32 -158 -49 -8 -8 -20 -15 -26 -15
-19 0 -94 -48 -110 -70 -8 -12 -25 -26 -37 -31 -14 -5 -21 -14 -17 -23 3 -9
-3 -28 -13 -43 -65 -94 -77 -254 -28 -387 14 -39 32 -77 40 -86 8 -9 12 -25 8
-38 -4 -19 0 -25 26 -35 17 -6 31 -15 31 -20 0 -4 4 -5 10 -2 6 3 10 1 10 -4
0 -6 6 -11 13 -11 7 0 18 -9 25 -20 13 -21 76 -57 113 -64 61 -11 77 -19 83
-39 l6 -22 21 24 c17 21 22 22 30 10 5 -7 9 -27 10 -44 2 -73 8 -105 23 -120
9 -9 16 -13 17 -8 0 4 2 17 4 28 2 11 5 48 6 82 1 42 6 64 15 67 8 3 14 -1 14
-11 0 -13 2 -14 17 -2 15 12 16 12 10 -4 -3 -9 -2 -17 3 -17 9 0 15 30 11 53
-1 7 15 11 32 8 4 0 7 4 7 10 0 5 5 7 10 4 14 -9 90 36 83 49 -3 6 -3 8 2 4
16 -15 91 50 121 105 8 16 28 42 43 57 24 26 28 37 28 95 0 36 3 68 5 70 2 3
3 40 2 84 -4 114 -36 174 -150 287 -58 56 -194 130 -230 126 -22 -3 -24 0 -25
45 -1 80 -15 121 -34 99z"/>
</g>
</svg>
